/* XPM */
static char *cb19ffec885446d486dbb37411042fceMhryE4JcqzBC8H6k[] = {
/* columns rows colors chars-per-pixel */
"64 64 62 1 ",
"  c #4D861D",
". c #528D22",
"X c #559226",
"o c #569229",
"O c #5A952C",
"+ c #5C992E",
"@ c #5D9730",
"# c #5E9C32",
"$ c #629D34",
"% c #669E38",
"& c #6B9F3A",
"* c #5FA135",
"= c #64A136",
"- c #68A337",
"; c #66A33A",
": c #6BA53C",
"> c #6DA93E",
", c #70A73F",
"< c #70AB3F",
"1 c #6EA640",
"2 c #6EAB41",
"3 c #71A741",
"4 c #72AC44",
"5 c #76AF48",
"6 c #79AE49",
"7 c #6EB044",
"8 c #74B146",
"9 c #78B347",
"0 c #76B24A",
"q c #7BB44C",
"w c #77B94F",
"e c #7DB94F",
"r c #7EB750",
"t c #7DBA52",
"y c #7EC054",
"u c #80B54D",
"i c #81B751",
"p c #82BB54",
"a c #86BF58",
"s c #88BF59",
"d c #85C157",
"f c #86C259",
"g c #8BC35C",
"h c #8CC95E",
"j c #90C55E",
"k c #8EC660",
"l c #8FCB61",
"z c #93C661",
"x c #93CB64",
"c c #98CD65",
"v c #96CF68",
"b c #99CE69",
"n c #93D165",
"m c #97D269",
"M c #9BD36B",
"N c #9CD96E",
"B c #9FD670",
"V c #A0D76F",
"C c #A1D570",
"Z c #A3DC74",
"A c #A2E075",
"S c #ADE47C",
/* pixels */
"                                                                ",
"                                                                ",
"                                                                ",
"                                                                ",
"                                                                ",
"                                                                ",
"                                                                ",
"                                                                ",
"                                                                ",
"                                                                ",
"                                                                ",
"                                                                ",
"                                                                ",
"                                                                ",
"                                                                ",
"                                                                ",
"                                                                ",
"                                                                ",
"                                                                ",
"                                                                ",
"                                                                ",
"                                                                ",
"                                                                ",
"                                                                ",
"                                                                ",
"                                                                ",
"                                                                ",
"                                                                ",
"                                                                ",
"                                                                ",
"                                                                ",
"                                                                ",
"                                                                ",
"                                                                ",
"                                                                ",
"                                                                ",
"                                                                ",
"                                                                ",
"                                                                ",
"                                                                ",
"                                                                ",
"                                                                ",
"                                                                ",
"                                                                ",
"                                                                ",
"                                                                ",
"                                                                ",
"                                                                ",
"    vBss          hg-<>                  s%&c          <->88    ",
"   pvvkkz        Mxp-,89                zi&3sz        89>-9<$   ",
"  %3BB6656      3<99,8hd>              366uuzz&      7hd28nh<<  ",
" e-3vk4435r    &>489q9hf>8            5533iiss$%    wwhf29nh9>- ",
"purripki;:mc  5rmn$+fy;>978          pkt&1vv588um  +hy->777<;>>*",
" esp6ekr%4xx6&4rAm+=hf*;7<;;        0qkr%3vx8,8uZN+=hf*;7<>-;>  ",
"  gs44aa0q>3q0&3pe>7<<+=*;=-*#><:4kf44aa0q11q9>>ep>8>>***;--*   ",
"   k:1faqq=>0141w9987<+O==*+#=>831zh;1kaq0%18<<>eq984>++*=*$    ",
"    =;8<qq9>>;#+..8<,,$$eqppO$%3Mxtq%%42ee<><;$+..8443$$9ed     ",
"     ;<>tt28*==o  68-,-=dpgp@O:1Bbrq%:22ew<8=*-X  65--=$fp      ",
"      +O=*=;=,NmiqZVjdpqpp36sszjCBgrOoOO=*;-;>NmuuZVhfi9d       ",
"       +##;*=,AAsgSAgduuis,3jscbBbka@Oo+#*=*=>AAajSZhser        ",
"        lhff4qe9$-iiwr22xgip44ssjdpp$;+$lldd4qrq$-upqq1         ",
"         lhgqi66==ee4011gdet45ssjpdd22+=lnhhqr50%%ee5w          ",
"           qrqcx10Nn=$#1129431ug,4e9-= #fddqrrcx<9Ml*           ",
"            qaZM0wAN;=;;2=qw44fg,,p9<<X#hhtiqpZN99A*            "
};
